<svg 
class="icon_defaultIcon__pltkn10 icon_smallIcon__pltkn11 sc-iPOUvw jbUIDn" 
xmlns="http://www.w3.org/2000/svg" 
viewBox="0 0 24 24" 
enable-background="new 0 0 24 24">
<path 
d="M21.974 5.811v12.232c.151 3.264-4.177 5.352-7.211 5.864-2.098.36-4.083-.399-5.33-1.044L.68 18.29c-.226-.151-.68-.417-.68-1.347V4.483c0-1.689 1.701-.598 2.987-.104l6.606 2.77c1.531.665 3.761 1.538 5.529 1.367 3.856-.351 6.852-2.705 6.852-2.705z" 
fill="url(#pcc-icon-gradient)">
</path>
<path 
d="M13.81 6.048c1.283.31 3.142-.311 4.816-1.448.474-.282.436-.981-.726-1.487C15.912 2.25 12.529.772 12.529.772 11.04.12 9.71-.676 9.71.995v3.42s3.263 1.429 4.1 1.633z" 
fill="url(#pcc-icon-gradient)">
</path>
</svg>